<mxfile host="app.diagrams.net" modified="2023-06-11T19:26:45.740Z" agent="5.0 (Macintosh; Intel Mac OS X 10_15_7) AppleWebKit/537.36 (KHTML, like Gecko) Chrome/112.0.0.0 Safari/537.36" etag="Ppv9I8i_wg3FQ2AZWnrX" version="21.0.6" type="github">
  <diagram name="Page-1" id="-Rhnz9SSrFt-8Gb-ef3p">
    <mxGraphModel dx="2044" dy="565" grid="1" gridSize="10" guides="1" tooltips="1" connect="1" arrows="1" fold="1" page="1" pageScale="1" pageWidth="850" pageHeight="1100" math="0" shadow="0">
      <root>
        <mxCell id="0" />
        <mxCell id="1" parent="0" />
        <mxCell id="dj0Ey-xcIrCxgGk_O2B6-1" value="" style="rounded=0;whiteSpace=wrap;html=1;" vertex="1" parent="1">
          <mxGeometry x="50" y="160" width="990" height="590" as="geometry" />
        </mxCell>
        <mxCell id="dj0Ey-xcIrCxgGk_O2B6-2" value="" style="rounded=0;whiteSpace=wrap;html=1;fillColor=#E6E6E6;strokeColor=#FFFFFF;" vertex="1" parent="1">
          <mxGeometry x="190" y="210" width="235" height="150" as="geometry" />
        </mxCell>
        <mxCell id="dj0Ey-xcIrCxgGk_O2B6-9" value="" style="rounded=0;whiteSpace=wrap;html=1;fillColor=#E6E6E6;strokeColor=#FFFFFF;" vertex="1" parent="1">
          <mxGeometry x="100" y="420" width="110" height="170" as="geometry" />
        </mxCell>
        <mxCell id="dj0Ey-xcIrCxgGk_O2B6-10" value="" style="rounded=0;whiteSpace=wrap;html=1;fillColor=#E6E6E6;strokeColor=#FFFFFF;" vertex="1" parent="1">
          <mxGeometry x="240" y="420" width="220" height="170" as="geometry" />
        </mxCell>
        <mxCell id="dj0Ey-xcIrCxgGk_O2B6-11" value="" style="rounded=0;whiteSpace=wrap;html=1;fillColor=#E6E6E6;strokeColor=#FFFFFF;" vertex="1" parent="1">
          <mxGeometry x="490" y="420" width="220" height="170" as="geometry" />
        </mxCell>
        <mxCell id="dj0Ey-xcIrCxgGk_O2B6-12" value="" style="rounded=0;whiteSpace=wrap;html=1;fillColor=#E6E6E6;strokeColor=#FFFFFF;" vertex="1" parent="1">
          <mxGeometry x="740" y="420" width="220" height="240" as="geometry" />
        </mxCell>
        <mxCell id="dj0Ey-xcIrCxgGk_O2B6-13" value="" style="rounded=0;whiteSpace=wrap;html=1;fillColor=#E6E6E6;strokeColor=#FFFFFF;" vertex="1" parent="1">
          <mxGeometry x="-170" y="360" width="140" height="80" as="geometry" />
        </mxCell>
      </root>
    </mxGraphModel>
  </diagram>
</mxfile>
